<?xml version="1.0" encoding="utf-8"?>
<!-- Generator: Adobe Illustrator 19.0.0, SVG Export Plug-In . SVG Version: 6.00 Build 0)  -->
<svg version="1.1" id="Capa_1" xmlns="http://www.w3.org/2000/svg" xmlns:xlink="http://www.w3.org/1999/xlink" x="0px" y="0px"
	 viewBox="-5 26.3 89 48.7" style="enable-background:new -5 26.3 89 48.7;" xml:space="preserve">
<style type="text/css">
	.st0{fill-rule:evenodd;clip-rule:evenodd;fill:#2A358C;}
	.st1{fill-rule:evenodd;clip-rule:evenodd;fill:#FFFFFF;}
</style>
<g id="XMLID_97_">
	<path id="XMLID_2485_" class="st0" d="M39.5,33.6C63,33.6,82.3,41,82.3,50c0,9.1-19.2,16.5-42.7,16.5C16,66.5-3.3,59.1-3.3,50
		C-3.3,41,16,33.6,39.5,33.6L39.5,33.6z M71.1,66.8v-2.3H72c0.2,0,0.3,0,0.4,0.1c0.1,0,0.2,0.1,0.2,0.2c0.1,0.1,0.1,0.2,0.1,0.4
		c0,0.2,0,0.3-0.1,0.4c-0.1,0.1-0.2,0.2-0.4,0.2c0.1,0,0.1,0.1,0.2,0.1c0.1,0.1,0.2,0.2,0.2,0.3l0.3,0.6h-0.3l-0.3-0.5
		c-0.1-0.1-0.1-0.2-0.2-0.3c0-0.1-0.1-0.1-0.1-0.2c0,0-0.1-0.1-0.1-0.1c0,0-0.1,0-0.1,0h-0.3v1H71.1L71.1,66.8z M71.4,65.5h0.6
		c0.1,0,0.2,0,0.3,0c0.1,0,0.1-0.1,0.2-0.1c0-0.1,0.1-0.1,0.1-0.2c0-0.1,0-0.2-0.1-0.3c-0.1-0.1-0.2-0.1-0.3-0.1h-0.6V65.5
		L71.4,65.5z M71.9,63.5c1.2,0,2.1,0.9,2.1,2.1c0,1.2-0.9,2.1-2.1,2.1c-1.2,0-2.1-0.9-2.1-2.1C69.8,64.5,70.7,63.5,71.9,63.5
		L71.9,63.5z M71.9,63.8c1,0,1.8,0.8,1.8,1.8c0,1-0.8,1.8-1.8,1.8c-1,0-1.8-0.8-1.8-1.8C70.1,64.6,70.9,63.8,71.9,63.8L71.9,63.8z"
		/>
	<path id="XMLID_2482_" class="st1" d="M39.5,35.1c22.6,0,41.1,6.7,41.1,14.9c0,8.2-18.5,14.9-41.1,14.9C16.9,64.9-1.6,58.2-1.6,50
		C-1.6,41.8,16.9,35.1,39.5,35.1L39.5,35.1z M39.5,36.7c22.2,0,40.2,6,40.2,13.3c0,7.3-18.1,13.3-40.2,13.3
		c-22.2,0-40.2-6-40.2-13.3C-0.7,42.7,17.3,36.7,39.5,36.7L39.5,36.7z"/>
	<path id="XMLID_2463_" class="st1" d="M57.4,54.4c-0.7,0.5-1.5,0.7-2.2,0.7c-1,0-1.7-0.3-2.2-0.9c-1.2-1.5-0.2-4.6,1-6
		c2-2.5,6.7-3.5,6.6,0.1c-0.1,2.6-3.9,2.8-5.9,3.2c-0.1,0.7,0,1.2,0.2,1.7c0.4,0.7,1.5,1.2,2.6,0.3C60,51.7,59.2,53.2,57.4,54.4
		L57.4,54.4z M54.7,50.7c1.7-0.1,4.3-1.3,3.9-2.7C58.1,45.7,55,48.3,54.7,50.7L54.7,50.7z M31.3,54l1.9-5.4c0.2-0.6,0.4-1.9-0.6-0.7
		c-1.4,1.8-0.4-0.4,0.3-1c0.6-0.5,1.1-0.8,1.6-0.8c0.3,0,0.6,0.1,0.7,0.3c0.1,0.2,0.1,0.7,0.1,1.1c0,0.3-0.1,0.5-0.2,0.8
		s-0.2,0.6-0.3,1l0.1,0.1c0.6-1.1,1.1-1.9,1.7-2.5c0.6-0.5,1.1-0.8,1.7-0.8c0.4,0,0.6,0.1,0.9,0.4c0.2,0.2,0.3,0.5,0.3,0.9
		c-0.2,1.7-1.8,1.2-2.4,0.1c-0.4,0.2-0.8,0.7-1.2,1.3c-0.4,0.6-0.8,1.5-1.2,2.6l-1,2.7C33,55.4,30.8,55.4,31.3,54L31.3,54z M39.8,54
		l1.9-5.4c0.2-0.6,0.4-1.9-0.6-0.7c-1.4,1.8-0.4-0.4,0.3-1c0.6-0.5,1.1-0.8,1.6-0.8c0.3,0,0.6,0.1,0.7,0.3c0.1,0.2,0.1,0.7,0.1,1.1
		c0,0.3-0.1,0.5-0.2,0.8s-0.2,0.6-0.3,1l0.1,0.1c0.6-1.1,1.1-1.9,1.7-2.5c0.6-0.5,1.1-0.8,1.7-0.8c0.4,0,0.6,0.1,0.9,0.4
		c0.2,0.2,0.3,0.5,0.3,0.9c-0.2,1.7-1.8,1.2-2.4,0.1c-0.4,0.2-0.8,0.7-1.2,1.3c-0.4,0.6-0.8,1.5-1.2,2.6L42,54
		C41.4,55.4,39.3,55.4,39.8,54L39.8,54z M61.3,54l1.9-5.4c0.2-0.6,0.4-1.9-0.6-0.7c-1.4,1.8-0.4-0.4,0.3-1c0.6-0.5,1.1-0.8,1.6-0.8
		c0.3,0,0.6,0.1,0.7,0.3c0.1,0.2,0.1,0.7,0.1,1.1c0,0.3-0.1,0.5-0.2,0.8s-0.2,0.6-0.3,1l0.1,0.1c0.6-1.1,1.1-1.9,1.7-2.5
		c0.6-0.5,1.1-0.8,1.7-0.8c0.4,0,0.6,0.1,0.9,0.4c0.2,0.2,0.3,0.5,0.3,0.9c-0.2,1.7-1.8,1.2-2.4,0.1c-0.4,0.2-0.8,0.7-1.2,1.3
		c-0.4,0.6-0.8,1.5-1.2,2.6l-1,2.7C63,55.4,60.8,55.4,61.3,54L61.3,54z M25.6,52.7c-0.6,0.8-1.2,1.4-1.8,1.8
		c-0.5,0.4-1.1,0.6-1.6,0.6c-0.7,0-1.2-0.3-1.5-0.8c-0.3-0.5-0.4-1.2-0.3-2.1c0.1-0.8,0.4-1.5,0.8-2.3c0.4-0.8,1-1.5,1.6-2.1
		c0.5-0.5,1.1-1,1.8-1.3c0.6-0.3,1.3-0.5,1.8-0.5c0.3,0,0.6,0.1,0.9,0.2c0.3,0.1,0.5,0.2,0.5,0.2c0.3-0.6,2.2-0.7,1.8,0.2l-2.5,6.3
		c-0.3,0.8,0.1,1.1,0.8,0.4c0.2-0.2,1.9-2,0.9-0.4c-0.5,0.7-0.7,1-1.2,1.4c-0.5,0.5-1.1,0.7-1.6,0.7C24.7,55.1,25.3,53.5,25.6,52.7
		L25.6,52.7z M26.6,46.9c-2.1,0-5.3,6.3-3.3,6.3C25.5,53.2,28.4,46.9,26.6,46.9L26.6,46.9z M50.4,53.5c-0.3,0.6-1.6,1.6-2.3,1.6
		c-1.5-0.1-1.2-1.8-0.9-2.7l1.8-5.1c0.6-1.8,2.2-1,1.7,0.4c-0.4,1.2-0.8,2.6-1.3,3.7c-0.4,1-0.6,1.6-0.6,1.8
		C48.6,55.3,52.1,50.5,50.4,53.5L50.4,53.5z M51.2,42.9c0.6,0,1,0.6,0.9,1.3c-0.1,0.7-0.8,1.3-1.4,1.3c-0.6,0-1-0.6-0.9-1.3
		C50,43.5,50.6,42.9,51.2,42.9L51.2,42.9z M18,53.7c-0.7,0.5-1.5,0.8-2.4,1.1c-6,1.7-8-5.4-3.6-9.2c1.6-1.4,3.6-2.3,5.6-2.8
		c2.4-0.6,4.7-0.4,4.7,1.4c0,0.6-0.6,1.1-1.3,1.1s-1.3-0.6-1.3-1.1s0.1-0.6,0.3-0.8c-3.3-0.5-7.4,2-8.1,6.6c-0.3,1.9,0.9,4,3.2,3.8
		c0.4,0,1.8-0.3,2.9-1.2C18.8,52.1,19.5,52.6,18,53.7L18,53.7z"/>
</g>
</svg>
